<svg id="svg" fill="#000000" stroke="#000000" width="179" height="179" version="1.1" viewBox="144 144 512 512" xmlns="http://www.w3.org/2000/svg">
    <g id="IconSvg_bgCarrier" stroke-width="0"></g>
    <g id="IconSvg_tracerCarrier" stroke-linecap="round" stroke-linejoin="round" stroke="#CCCCCC" stroke-width="0">
      <defs xmlns="http://www.w3.org/2000/svg">
  <clipPath id="a">
   <path d="m148.09 203h503.81v394h-503.81z"></path>
  </clipPath>
 </defs>
<g xmlns="http://www.w3.org/2000/svg" clip-path="url(#a)">
  <path d="m604.67 203.2h-409.35c-12.523 0-24.539 4.9766-33.398 13.832-8.8555 8.8594-13.832 20.871-13.832 33.398v299.14c0 12.527 4.9766 24.539 13.832 33.398 8.8594 8.8594 20.875 13.836 33.398 13.836h409.35c12.527 0 24.539-4.9766 33.398-13.836 8.8555-8.8594 13.832-20.871 13.832-33.398v-299.14c0-12.527-4.9766-24.539-13.832-33.398-8.8594-8.8555-20.871-13.832-33.398-13.832zm15.742 346.37c0 4.1758-1.6562 8.1797-4.6094 11.133-2.9531 2.9531-6.957 4.6133-11.133 4.6133h-409.35c-4.1758 0-8.1797-1.6602-11.133-4.6133-2.9492-2.9531-4.6094-6.957-4.6094-11.133v-299.14c0-4.1758 1.6602-8.1797 4.6094-11.133 2.9531-2.9531 6.957-4.6094 11.133-4.6094h409.35c4.1758 0 8.1797 1.6562 11.133 4.6094 2.9531 2.9531 4.6094 6.957 4.6094 11.133z"></path>
 </g>
<path xmlns="http://www.w3.org/2000/svg" d="m270.57 370.7c12.945 0 25.359-5.1406 34.512-14.297 9.1523-9.1523 14.297-21.566 14.297-34.512 0-12.941-5.1445-25.355-14.297-34.512-9.1523-9.1523-21.566-14.293-34.512-14.293-12.945 0-25.359 5.1406-34.512 14.293-9.1523 9.1562-14.293 21.57-14.293 34.512 0 12.945 5.1406 25.359 14.293 34.512 9.1523 9.1562 21.566 14.297 34.512 14.297zm0-66.047c4.5938 0 9 1.8242 12.246 5.0742 3.2461 3.2461 5.0742 7.6523 5.0742 12.246 0 4.5898-1.8281 8.9961-5.0742 12.246-3.2461 3.2461-7.6523 5.0703-12.246 5.0703s-8.9961-1.8242-12.246-5.0703c-3.2461-3.25-5.0703-7.6562-5.0703-12.246 0-4.5938 1.8242-9 5.0703-12.246 3.25-3.25 7.6523-5.0742 12.246-5.0742z"></path>
<path xmlns="http://www.w3.org/2000/svg" d="m270.57 386.44c-20.184 0.023438-39.535 8.0469-53.809 22.32-14.273 14.27-22.305 33.621-22.328 53.805v48.523c0 4.1758 1.6562 8.1797 4.6094 11.133 2.9531 2.9492 6.957 4.6094 11.133 4.6094h120.76c4.1758 0 8.1797-1.6602 11.133-4.6094 2.9531-2.9531 4.6094-6.957 4.6094-11.133v-48.523c-0.019531-20.18-8.043-39.527-22.312-53.801-14.266-14.27-33.613-22.297-53.793-22.324zm44.617 108.9h-89.266v-32.777c0-15.949 8.5078-30.684 22.316-38.656s30.824-7.9727 44.633 0c13.812 7.9727 22.316 22.707 22.316 38.656z"></path>
<path xmlns="http://www.w3.org/2000/svg" d="m589.82 297.9h-98.512c-4.1914-10.52-12.438-18.914-22.883-23.297-10.441-4.3828-22.211-4.3828-32.652 0-10.445 4.3828-18.691 12.777-22.883 23.297h-23.809c-5.6211 0-10.82 3-13.633 7.8711-2.8125 4.8711-2.8125 10.875 0 15.746s8.0117 7.8711 13.633 7.8711h23.727c4.2031 10.512 12.449 18.898 22.891 23.273s22.203 4.375 32.645 0 18.688-12.762 22.887-23.273h98.59c5.625 0 10.824-3 13.637-7.8711s2.8125-10.875 0-15.746c-2.8125-4.8711-8.0117-7.8711-13.637-7.8711zm-137.79 26.527c-4.3828 0.007813-8.3398-2.6289-10.02-6.6797-1.6797-4.0469-0.75391-8.7109 2.3477-11.809 3.0977-3.1016 7.7617-4.0273 11.809-2.3477 4.0508 1.6797 6.6875 5.6367 6.6797 10.02-0.007812 5.9727-4.8438 10.809-10.816 10.816z"></path>
<path xmlns="http://www.w3.org/2000/svg" d="m589.82 384.25h-10.344c-4.1953-10.516-12.441-18.902-22.883-23.281-10.438-4.375-22.199-4.375-32.641 0-10.441 4.3789-18.684 12.766-22.883 23.281h-111.99c-5.6211 0-10.82 3-13.633 7.8711s-2.8125 10.875 0 15.746 8.0117 7.8711 13.633 7.8711h111.99c4.1992 10.516 12.441 18.902 22.883 23.281 10.441 4.375 22.203 4.375 32.641 0 10.441-4.3789 18.688-12.766 22.883-23.281h10.344c5.625 0 10.824-3 13.637-7.8711s2.8125-10.875 0-15.746-8.0117-7.8711-13.637-7.8711zm-49.547 26.578c-4.3789-0.015625-8.3164-2.6602-9.9844-6.7109-1.668-4.0469-0.73047-8.7031 2.3672-11.793 3.1016-3.0898 7.7578-4.0117 11.801-2.332 4.043 1.6758 6.6797 5.625 6.6797 10.004 0 2.875-1.1445 5.6367-3.1836 7.668-2.0391 2.0352-4.8008 3.1719-7.6797 3.1641z"></path>
<path xmlns="http://www.w3.org/2000/svg" d="m589.82 470.61h-61.164c-4.2031-10.512-12.449-18.898-22.891-23.273-10.441-4.375-22.203-4.375-32.645 0s-18.688 12.762-22.887 23.273h-61.152c-5.6211 0-10.82 3.0039-13.633 7.875s-2.8125 10.871 0 15.742c2.8125 4.8711 8.0117 7.8711 13.633 7.8711h61.152c4.1914 10.523 12.438 18.918 22.883 23.297 10.445 4.3828 22.211 4.3828 32.656 0 10.441-4.3789 18.688-12.773 22.883-23.297h61.164c5.625 0 10.824-3 13.637-7.8711 2.8125-4.8711 2.8125-10.871 0-15.742s-8.0117-7.875-13.637-7.875zm-100.37 26.574v0.003906c-4.3828 0.003906-8.3398-2.6289-10.02-6.6758s-0.75781-8.7109 2.3398-11.812c3.0938-3.0977 7.7539-4.0273 11.805-2.3516 4.0508 1.6719 6.6914 5.625 6.6914 10.008-0.007813 5.9727-4.8438 10.812-10.816 10.832z"></path>

      </g>
     <g id="IconSvg_iconCarrier">
      <defs xmlns="http://www.w3.org/2000/svg">
  <clipPath id="a">
   <path d="m148.09 203h503.81v394h-503.81z"></path>
  </clipPath>
 </defs>
<g xmlns="http://www.w3.org/2000/svg" clip-path="url(#a)">
  <path d="m604.67 203.2h-409.35c-12.523 0-24.539 4.9766-33.398 13.832-8.8555 8.8594-13.832 20.871-13.832 33.398v299.14c0 12.527 4.9766 24.539 13.832 33.398 8.8594 8.8594 20.875 13.836 33.398 13.836h409.35c12.527 0 24.539-4.9766 33.398-13.836 8.8555-8.8594 13.832-20.871 13.832-33.398v-299.14c0-12.527-4.9766-24.539-13.832-33.398-8.8594-8.8555-20.871-13.832-33.398-13.832zm15.742 346.37c0 4.1758-1.6562 8.1797-4.6094 11.133-2.9531 2.9531-6.957 4.6133-11.133 4.6133h-409.35c-4.1758 0-8.1797-1.6602-11.133-4.6133-2.9492-2.9531-4.6094-6.957-4.6094-11.133v-299.14c0-4.1758 1.6602-8.1797 4.6094-11.133 2.9531-2.9531 6.957-4.6094 11.133-4.6094h409.35c4.1758 0 8.1797 1.6562 11.133 4.6094 2.9531 2.9531 4.6094 6.957 4.6094 11.133z"></path>
 </g>
<path xmlns="http://www.w3.org/2000/svg" d="m270.57 370.7c12.945 0 25.359-5.1406 34.512-14.297 9.1523-9.1523 14.297-21.566 14.297-34.512 0-12.941-5.1445-25.355-14.297-34.512-9.1523-9.1523-21.566-14.293-34.512-14.293-12.945 0-25.359 5.1406-34.512 14.293-9.1523 9.1562-14.293 21.57-14.293 34.512 0 12.945 5.1406 25.359 14.293 34.512 9.1523 9.1562 21.566 14.297 34.512 14.297zm0-66.047c4.5938 0 9 1.8242 12.246 5.0742 3.2461 3.2461 5.0742 7.6523 5.0742 12.246 0 4.5898-1.8281 8.9961-5.0742 12.246-3.2461 3.2461-7.6523 5.0703-12.246 5.0703s-8.9961-1.8242-12.246-5.0703c-3.2461-3.25-5.0703-7.6562-5.0703-12.246 0-4.5938 1.8242-9 5.0703-12.246 3.25-3.25 7.6523-5.0742 12.246-5.0742z"></path>
<path xmlns="http://www.w3.org/2000/svg" d="m270.57 386.44c-20.184 0.023438-39.535 8.0469-53.809 22.32-14.273 14.27-22.305 33.621-22.328 53.805v48.523c0 4.1758 1.6562 8.1797 4.6094 11.133 2.9531 2.9492 6.957 4.6094 11.133 4.6094h120.76c4.1758 0 8.1797-1.6602 11.133-4.6094 2.9531-2.9531 4.6094-6.957 4.6094-11.133v-48.523c-0.019531-20.18-8.043-39.527-22.312-53.801-14.266-14.27-33.613-22.297-53.793-22.324zm44.617 108.9h-89.266v-32.777c0-15.949 8.5078-30.684 22.316-38.656s30.824-7.9727 44.633 0c13.812 7.9727 22.316 22.707 22.316 38.656z"></path>
<path xmlns="http://www.w3.org/2000/svg" d="m589.82 297.9h-98.512c-4.1914-10.52-12.438-18.914-22.883-23.297-10.441-4.3828-22.211-4.3828-32.652 0-10.445 4.3828-18.691 12.777-22.883 23.297h-23.809c-5.6211 0-10.82 3-13.633 7.8711-2.8125 4.8711-2.8125 10.875 0 15.746s8.0117 7.8711 13.633 7.8711h23.727c4.2031 10.512 12.449 18.898 22.891 23.273s22.203 4.375 32.645 0 18.688-12.762 22.887-23.273h98.59c5.625 0 10.824-3 13.637-7.8711s2.8125-10.875 0-15.746c-2.8125-4.8711-8.0117-7.8711-13.637-7.8711zm-137.79 26.527c-4.3828 0.007813-8.3398-2.6289-10.02-6.6797-1.6797-4.0469-0.75391-8.7109 2.3477-11.809 3.0977-3.1016 7.7617-4.0273 11.809-2.3477 4.0508 1.6797 6.6875 5.6367 6.6797 10.02-0.007812 5.9727-4.8438 10.809-10.816 10.816z"></path>
<path xmlns="http://www.w3.org/2000/svg" d="m589.82 384.25h-10.344c-4.1953-10.516-12.441-18.902-22.883-23.281-10.438-4.375-22.199-4.375-32.641 0-10.441 4.3789-18.684 12.766-22.883 23.281h-111.99c-5.6211 0-10.82 3-13.633 7.8711s-2.8125 10.875 0 15.746 8.0117 7.8711 13.633 7.8711h111.99c4.1992 10.516 12.441 18.902 22.883 23.281 10.441 4.375 22.203 4.375 32.641 0 10.441-4.3789 18.688-12.766 22.883-23.281h10.344c5.625 0 10.824-3 13.637-7.8711s2.8125-10.875 0-15.746-8.0117-7.8711-13.637-7.8711zm-49.547 26.578c-4.3789-0.015625-8.3164-2.6602-9.9844-6.7109-1.668-4.0469-0.73047-8.7031 2.3672-11.793 3.1016-3.0898 7.7578-4.0117 11.801-2.332 4.043 1.6758 6.6797 5.625 6.6797 10.004 0 2.875-1.1445 5.6367-3.1836 7.668-2.0391 2.0352-4.8008 3.1719-7.6797 3.1641z"></path>
<path xmlns="http://www.w3.org/2000/svg" d="m589.82 470.61h-61.164c-4.2031-10.512-12.449-18.898-22.891-23.273-10.441-4.375-22.203-4.375-32.645 0s-18.688 12.762-22.887 23.273h-61.152c-5.6211 0-10.82 3.0039-13.633 7.875s-2.8125 10.871 0 15.742c2.8125 4.8711 8.0117 7.8711 13.633 7.8711h61.152c4.1914 10.523 12.438 18.918 22.883 23.297 10.445 4.3828 22.211 4.3828 32.656 0 10.441-4.3789 18.688-12.773 22.883-23.297h61.164c5.625 0 10.824-3 13.637-7.8711 2.8125-4.8711 2.8125-10.871 0-15.742s-8.0117-7.875-13.637-7.875zm-100.37 26.574v0.003906c-4.3828 0.003906-8.3398-2.6289-10.02-6.6758s-0.75781-8.7109 2.3398-11.812c3.0938-3.0977 7.7539-4.0273 11.805-2.3516 4.0508 1.6719 6.6914 5.625 6.6914 10.008-0.007813 5.9727-4.8438 10.812-10.816 10.832z"></path>

      </g>
      </svg>