<svg id="svg" fill="#000000" stroke="#000000" width="179" height="179" version="1.1" viewBox="144 144 512 512" xmlns="http://www.w3.org/2000/svg">
    <g id="IconSvg_bgCarrier" stroke-width="0"></g>
    <g id="IconSvg_tracerCarrier" stroke-linecap="round" stroke-linejoin="round" stroke="#CCCCCC" stroke-width="0">
      <g xmlns="http://www.w3.org/2000/svg">
  <path d="m338.13 297.82c0-1.8125 0.10156-3.5273 0.20312-5.2383 0.20312-2.9219 0-0.50391-0.10156 0.10156 0.10156-0.80469 0.30078-1.7148 0.40234-2.5195 0.70703-3.8281 1.8125-7.457 3.2227-11.082-1.1094 3.0234 0.60547-1.3086 1.1094-2.2148 0.80469-1.5117 1.6133-3.0234 2.5195-4.4336 0.90625-1.5117 1.9141-2.8203 2.8203-4.2305 1.6133-2.3164 0.30078-0.50391 0 0 0.80469-1.0078 1.6133-2.0156 2.5195-2.9219 2.3164-2.6211 4.9375-4.9375 7.457-7.2539 2.1172-1.9141 0.50391-0.50391 0-0.10156 0.70703-0.50391 1.4102-1.0078 2.1172-1.5117 1.8125-1.3086 3.7266-2.418 5.6445-3.5273 1.5117-0.90625 3.125-1.7148 4.7344-2.5195 0.80469-0.40234 1.6133-0.80469 2.418-1.1094-0.60547 0.30078-2.6211 1.0078 0.20313-0.10156 3.7266-1.4102 7.457-2.6211 11.285-3.5273 2.1172-0.50391 4.1328-0.90625 6.2461-1.2109-3.0234 0.50391 2.5195-0.20312 3.125-0.20312 3.6289-0.20312 7.3555-0.30078 10.984 0 1.0078 0.10156 1.9141 0.10156 2.9219 0.20312 0.40234 0 3.4258 0.40234 1.6133 0.10156-1.8125-0.30078 1.1094 0.20312 1.5117 0.30078 0.90625 0.20312 1.8125 0.30078 2.8203 0.50391 4.1328 0.90625 8.0625 2.0156 11.992 3.5273 0.40234 0.10156 3.0234 1.2109 1.4102 0.50391-1.6133-0.70703 0.90625 0.50391 1.3086 0.60547 1.6133 0.80469 3.2227 1.6133 4.7344 2.5195 1.5117 0.90625 3.0234 1.8125 4.5352 2.8203 0.60547 0.40234 5.1406 3.8281 2.8203 1.9141 2.7188 2.2148 5.2383 4.5352 7.6562 7.0547 0.60547 0.60547 1.2109 1.3086 1.7148 1.9141 0 0 2.6211 3.2227 1.2109 1.5117-1.1094-1.5117 0.50391 0.70703 0.70703 1.0078 0.60547 0.90625 1.2109 1.7148 1.8125 2.6211 1.8125 2.8203 3.4258 5.8438 4.7344 8.9688-1.3086-2.9219 0.40234 1.4102 0.70703 2.3164 0.60547 2.0156 1.2109 4.1328 1.6133 6.2461 0.20312 1.1094 0.60547 5.6445 0.50391 2.418 0.10156 1.7148 0.30078 3.5273 0.30078 5.2383v6.4492c0 2.1172-0.10156 4.2305-0.30078 6.2461 0.20312-2.418-0.60547 3.2227-0.70703 3.7266-0.50391 2.0156-1.0078 4.0312-1.7148 6.0469-0.30078 1.0078-0.70703 2.0156-1.1094 2.9219 0.70703-1.8125-0.40234 0.90625-0.70703 1.4102-1.1094 2.1172-2.2148 4.2305-3.5273 6.2461-0.60547 0.90625-1.2109 1.8125-1.8125 2.7188-0.10156 0.10156-1.7148 2.2148-0.60547 0.80469-1.5117 1.9141-3.125 3.6289-4.8359 5.3398-14.309 14.609-30.129 28.617-41.918 45.445-12.594 18.035-19.648 39.902-20.453 61.867-0.30078 9.0703-0.10156 18.238-0.10156 27.406 0 7.8594 6.9531 15.516 15.113 15.113 8.1602-0.40234 15.113-6.6484 15.113-15.113 0-8.0625-0.10156-16.121 0-24.184 0.10156-9.875 0.90625-15.82 4.2305-25.996 0.80469-2.5195 1.7148-5.1406 2.7188-7.5586-0.70703 1.7148 1.6133-3.3242 1.8125-3.7266 2.2148-4.332 4.7344-8.5664 7.5586-12.594 2.2148-3.125 4.7344-6.2461 8.2617-9.875 0.90625-0.90625 1.8125-1.8125 2.7188-2.8203 3.3242-3.4258 6.75-6.8516 10.078-10.277 6.4492-6.5508 13.301-12.898 19.348-19.852 24.184-27.609 28.617-71.039 7.7578-101.97-21.363-31.84-60.254-45.445-97.336-39.094-40.102 6.8516-73.152 41.109-73.555 82.523-0.10156 7.8594 7.0547 15.516 15.113 15.113 8.4688-0.29297 15.223-6.543 15.32-15.008z"></path>
  <path d="m384.68 526.96v29.02c0 7.8594 6.9531 15.516 15.113 15.113s15.113-6.6484 15.113-15.113v-29.02c0-7.8594-6.9531-15.516-15.113-15.113-8.2617 0.30469-15.113 6.6523-15.113 15.113z"></path>
 </g>

      </g>
     <g id="IconSvg_iconCarrier">
      <g xmlns="http://www.w3.org/2000/svg">
  <path d="m338.13 297.82c0-1.8125 0.10156-3.5273 0.20312-5.2383 0.20312-2.9219 0-0.50391-0.10156 0.10156 0.10156-0.80469 0.30078-1.7148 0.40234-2.5195 0.70703-3.8281 1.8125-7.457 3.2227-11.082-1.1094 3.0234 0.60547-1.3086 1.1094-2.2148 0.80469-1.5117 1.6133-3.0234 2.5195-4.4336 0.90625-1.5117 1.9141-2.8203 2.8203-4.2305 1.6133-2.3164 0.30078-0.50391 0 0 0.80469-1.0078 1.6133-2.0156 2.5195-2.9219 2.3164-2.6211 4.9375-4.9375 7.457-7.2539 2.1172-1.9141 0.50391-0.50391 0-0.10156 0.70703-0.50391 1.4102-1.0078 2.1172-1.5117 1.8125-1.3086 3.7266-2.418 5.6445-3.5273 1.5117-0.90625 3.125-1.7148 4.7344-2.5195 0.80469-0.40234 1.6133-0.80469 2.418-1.1094-0.60547 0.30078-2.6211 1.0078 0.20313-0.10156 3.7266-1.4102 7.457-2.6211 11.285-3.5273 2.1172-0.50391 4.1328-0.90625 6.2461-1.2109-3.0234 0.50391 2.5195-0.20312 3.125-0.20312 3.6289-0.20312 7.3555-0.30078 10.984 0 1.0078 0.10156 1.9141 0.10156 2.9219 0.20312 0.40234 0 3.4258 0.40234 1.6133 0.10156-1.8125-0.30078 1.1094 0.20312 1.5117 0.30078 0.90625 0.20312 1.8125 0.30078 2.8203 0.50391 4.1328 0.90625 8.0625 2.0156 11.992 3.5273 0.40234 0.10156 3.0234 1.2109 1.4102 0.50391-1.6133-0.70703 0.90625 0.50391 1.3086 0.60547 1.6133 0.80469 3.2227 1.6133 4.7344 2.5195 1.5117 0.90625 3.0234 1.8125 4.5352 2.8203 0.60547 0.40234 5.1406 3.8281 2.8203 1.9141 2.7188 2.2148 5.2383 4.5352 7.6562 7.0547 0.60547 0.60547 1.2109 1.3086 1.7148 1.9141 0 0 2.6211 3.2227 1.2109 1.5117-1.1094-1.5117 0.50391 0.70703 0.70703 1.0078 0.60547 0.90625 1.2109 1.7148 1.8125 2.6211 1.8125 2.8203 3.4258 5.8438 4.7344 8.9688-1.3086-2.9219 0.40234 1.4102 0.70703 2.3164 0.60547 2.0156 1.2109 4.1328 1.6133 6.2461 0.20312 1.1094 0.60547 5.6445 0.50391 2.418 0.10156 1.7148 0.30078 3.5273 0.30078 5.2383v6.4492c0 2.1172-0.10156 4.2305-0.30078 6.2461 0.20312-2.418-0.60547 3.2227-0.70703 3.7266-0.50391 2.0156-1.0078 4.0312-1.7148 6.0469-0.30078 1.0078-0.70703 2.0156-1.1094 2.9219 0.70703-1.8125-0.40234 0.90625-0.70703 1.4102-1.1094 2.1172-2.2148 4.2305-3.5273 6.2461-0.60547 0.90625-1.2109 1.8125-1.8125 2.7188-0.10156 0.10156-1.7148 2.2148-0.60547 0.80469-1.5117 1.9141-3.125 3.6289-4.8359 5.3398-14.309 14.609-30.129 28.617-41.918 45.445-12.594 18.035-19.648 39.902-20.453 61.867-0.30078 9.0703-0.10156 18.238-0.10156 27.406 0 7.8594 6.9531 15.516 15.113 15.113 8.1602-0.40234 15.113-6.6484 15.113-15.113 0-8.0625-0.10156-16.121 0-24.184 0.10156-9.875 0.90625-15.82 4.2305-25.996 0.80469-2.5195 1.7148-5.1406 2.7188-7.5586-0.70703 1.7148 1.6133-3.3242 1.8125-3.7266 2.2148-4.332 4.7344-8.5664 7.5586-12.594 2.2148-3.125 4.7344-6.2461 8.2617-9.875 0.90625-0.90625 1.8125-1.8125 2.7188-2.8203 3.3242-3.4258 6.75-6.8516 10.078-10.277 6.4492-6.5508 13.301-12.898 19.348-19.852 24.184-27.609 28.617-71.039 7.7578-101.97-21.363-31.84-60.254-45.445-97.336-39.094-40.102 6.8516-73.152 41.109-73.555 82.523-0.10156 7.8594 7.0547 15.516 15.113 15.113 8.4688-0.29297 15.223-6.543 15.32-15.008z"></path>
  <path d="m384.68 526.96v29.02c0 7.8594 6.9531 15.516 15.113 15.113s15.113-6.6484 15.113-15.113v-29.02c0-7.8594-6.9531-15.516-15.113-15.113-8.2617 0.30469-15.113 6.6523-15.113 15.113z"></path>
 </g>

      </g>
      </svg>