<svg id="svg" fill="#000000" stroke="#000000" width="179" height="179" version="1.1" viewBox="144 144 512 512" xmlns="http://www.w3.org/2000/svg">
    <g id="IconSvg_bgCarrier" stroke-width="0"></g>
    <g id="IconSvg_tracerCarrier" stroke-linecap="round" stroke-linejoin="round" stroke="#CCCCCC" stroke-width="0">
      <path xmlns="http://www.w3.org/2000/svg" d="m583.69 445.89h-122.48c-10.941 0-21.055 5.8398-26.527 15.316-5.4727 9.4766-5.4727 21.156 0 30.633s15.586 15.316 26.527 15.316h68.469c-26.152 31.738-63.035 52.793-103.66 59.172-40.629 6.3828-82.188-2.3516-116.81-24.543-34.625-22.195-59.91-56.312-71.078-95.895h-63.18c10.773 53.066 39.973 100.61 82.434 134.22 42.457 33.605 95.434 51.113 149.56 49.414 54.121-1.6992 105.9-22.488 146.17-58.691v28.164c-0.33594 8.332 2.7383 16.441 8.5117 22.457 5.7773 6.0156 13.758 9.4141 22.094 9.4141 8.3398 0 16.32-3.3984 22.098-9.4141 5.7734-6.0156 8.8477-14.125 8.5117-22.457v-122.48c0-8.125-3.2266-15.914-8.9727-21.66-5.7461-5.7461-13.535-8.9727-21.66-8.9727zm-367.38-91.844h122.48c10.641-0.42969 20.293-6.3594 25.492-15.648 5.1992-9.293 5.1992-20.621 0-29.914-5.1992-9.293-14.852-15.219-25.492-15.648h-68.469c26.137-31.766 63.016-52.84 103.65-59.238 40.637-6.3945 82.203 2.332 116.84 24.531 34.629 22.199 59.918 56.324 71.07 95.918h63.18c-10.781-53.062-39.988-100.6-82.449-134.2-42.457-33.598-95.438-51.094-149.55-49.395-54.121 1.7031-105.89 22.496-146.16 58.699v-28.164c0.33984-8.332-2.7344-16.441-8.5117-22.457s-13.754-9.4141-22.094-9.4141-16.32 3.3984-22.094 9.4141c-5.7773 6.0156-8.8516 14.125-8.5117 22.457v122.43c0 8.125 3.2266 15.918 8.9688 21.66 5.7461 5.7461 13.539 8.9727 21.66 8.9727z" fill-rule="evenodd"></path>

      </g>
     <g id="IconSvg_iconCarrier">
      <path xmlns="http://www.w3.org/2000/svg" d="m583.69 445.89h-122.48c-10.941 0-21.055 5.8398-26.527 15.316-5.4727 9.4766-5.4727 21.156 0 30.633s15.586 15.316 26.527 15.316h68.469c-26.152 31.738-63.035 52.793-103.66 59.172-40.629 6.3828-82.188-2.3516-116.81-24.543-34.625-22.195-59.91-56.312-71.078-95.895h-63.18c10.773 53.066 39.973 100.61 82.434 134.22 42.457 33.605 95.434 51.113 149.56 49.414 54.121-1.6992 105.9-22.488 146.17-58.691v28.164c-0.33594 8.332 2.7383 16.441 8.5117 22.457 5.7773 6.0156 13.758 9.4141 22.094 9.4141 8.3398 0 16.32-3.3984 22.098-9.4141 5.7734-6.0156 8.8477-14.125 8.5117-22.457v-122.48c0-8.125-3.2266-15.914-8.9727-21.66-5.7461-5.7461-13.535-8.9727-21.66-8.9727zm-367.38-91.844h122.48c10.641-0.42969 20.293-6.3594 25.492-15.648 5.1992-9.293 5.1992-20.621 0-29.914-5.1992-9.293-14.852-15.219-25.492-15.648h-68.469c26.137-31.766 63.016-52.84 103.65-59.238 40.637-6.3945 82.203 2.332 116.84 24.531 34.629 22.199 59.918 56.324 71.07 95.918h63.18c-10.781-53.062-39.988-100.6-82.449-134.2-42.457-33.598-95.438-51.094-149.55-49.395-54.121 1.7031-105.89 22.496-146.16 58.699v-28.164c0.33984-8.332-2.7344-16.441-8.5117-22.457s-13.754-9.4141-22.094-9.4141-16.32 3.3984-22.094 9.4141c-5.7773 6.0156-8.8516 14.125-8.5117 22.457v122.43c0 8.125 3.2266 15.918 8.9688 21.66 5.7461 5.7461 13.539 8.9727 21.66 8.9727z" fill-rule="evenodd"></path>

      </g>
      </svg>